# xmcd
#
# Track frame offsets: 
#        150
#        16679
#        32944
#        49292
#        69811
#        87513
#        111293
#        132954
#        152317
#        169381
#        188550
#
# Disc length: 2732 seconds
#
# Revision: 2
# Processed by: cddbd v1.5.2PL0 Copyright (c) Steve Scherf et al.
# Submitted via: ExactAudioCopy v0.99pb5
#
DISCID=870aaa0b
DTITLE=Keith Urban - Get Closer
DYEAR=2010
DGENRE=Country
TTITLE0=Put You in a Song
TTITLE1=You Gonna Fly
TTITLE2=All for You
TTITLE3=Long Hot Summer
TTITLE4=Without You
TTITLE5=Georgia Woods
TTITLE6=Right on Back to You
TTITLE7=Shut Out the Lights
TTITLE8=Big Promises
TTITLE9=The Luxury of Knowing
TTITLE10=Winning
EXTD=
EXTT0=
EXTT1=
EXTT2=
EXTT3=
EXTT4=
EXTT5=
EXTT6=
EXTT7=
EXTT8=
EXTT9=
EXTT10=Bonus Track
PLAYORDER=
